<svg id="visual" viewBox="0 0 900 300" width="900" height="300" xmlns="http://www.w3.org/2000/svg" xmlns:xlink="http://www.w3.org/1999/xlink" version="1.1"><rect x="0" y="0" width="900" height="300" fill="#00f"></rect><path d="M0 215L129 187L257 181L386 205L514 215L643 223L771 191L900 190L900 301L771 301L643 301L514 301L386 301L257 301L129 301L0 301Z" fill="#0af5ee"></path><path d="M0 224L129 211L257 206L386 198L514 200L643 213L771 210L900 219L900 301L771 301L643 301L514 301L386 301L257 301L129 301L0 301Z" fill="#00fbd4"></path><path d="M0 247L129 243L257 243L386 240L514 229L643 250L771 249L900 228L900 301L771 301L643 301L514 301L386 301L257 301L129 301L0 301Z" fill="#00ffad"></path><path d="M0 247L129 265L257 256L386 260L514 265L643 252L771 249L900 244L900 301L771 301L643 301L514 301L386 301L257 301L129 301L0 301Z" fill="#00ff75"></path><path d="M0 263L129 285L257 265L386 271L514 266L643 280L771 269L900 278L900 301L771 301L643 301L514 301L386 301L257 301L129 301L0 301Z" fill="#00ff00"></path></svg>