<svg id="visual" viewBox="0 0 900 300" width="900" height="300" xmlns="http://www.w3.org/2000/svg" xmlns:xlink="http://www.w3.org/1999/xlink" version="1.1"><path d="M0 43L13.7 45.5C27.3 48 54.7 53 82 52C109.3 51 136.7 44 163.8 43.5C191 43 218 49 245.2 52.5C272.3 56 299.7 57 327 56C354.3 55 381.7 52 409 50.5C436.3 49 463.7 49 491 45C518.3 41 545.7 33 573 30C600.3 27 627.7 29 654.8 29C682 29 709 27 736.2 30C763.3 33 790.7 41 818 46.5C845.3 52 872.7 55 886.3 56.5L900 58L900 0L886.3 0C872.7 0 845.3 0 818 0C790.7 0 763.3 0 736.2 0C709 0 682 0 654.8 0C627.7 0 600.3 0 573 0C545.7 0 518.3 0 491 0C463.7 0 436.3 0 409 0C381.7 0 354.3 0 327 0C299.7 0 272.3 0 245.2 0C218 0 191 0 163.8 0C136.7 0 109.3 0 82 0C54.7 0 27.3 0 13.7 0L0 0Z" fill="#ff0000"></path><path d="M0 154L13.7 151C27.3 148 54.7 142 82 132.5C109.3 123 136.7 110 163.8 114.5C191 119 218 141 245.2 145C272.3 149 299.7 135 327 122.5C354.3 110 381.7 99 409 93C436.3 87 463.7 86 491 97.5C518.3 109 545.7 133 573 133.5C600.3 134 627.7 111 654.8 107.5C682 104 709 120 736.2 122C763.3 124 790.7 112 818 116C845.3 120 872.7 140 886.3 150L900 160L900 56L886.3 54.5C872.7 53 845.3 50 818 44.5C790.7 39 763.3 31 736.2 28C709 25 682 27 654.8 27C627.7 27 600.3 25 573 28C545.7 31 518.3 39 491 43C463.7 47 436.3 47 409 48.5C381.7 50 354.3 53 327 54C299.7 55 272.3 54 245.2 50.5C218 47 191 41 163.8 41.5C136.7 42 109.3 49 82 50C54.7 51 27.3 46 13.7 43.5L0 41Z" fill="#ff004d"></path><path d="M0 181L13.7 182C27.3 183 54.7 185 82 175.5C109.3 166 136.7 145 163.8 149.5C191 154 218 184 245.2 190C272.3 196 299.7 178 327 163C354.3 148 381.7 136 409 132C436.3 128 463.7 132 491 145.5C518.3 159 545.7 182 573 180.5C600.3 179 627.7 153 654.8 145.5C682 138 709 149 736.2 149.5C763.3 150 790.7 140 818 144C845.3 148 872.7 166 886.3 175L900 184L900 158L886.3 148C872.7 138 845.3 118 818 114C790.7 110 763.3 122 736.2 120C709 118 682 102 654.8 105.5C627.7 109 600.3 132 573 131.5C545.7 131 518.3 107 491 95.5C463.7 84 436.3 85 409 91C381.7 97 354.3 108 327 120.5C299.7 133 272.3 147 245.2 143C218 139 191 117 163.8 112.5C136.7 108 109.3 121 82 130.5C54.7 140 27.3 146 13.7 149L0 152Z" fill="#fa0080"></path><path d="M0 259L13.7 257C27.3 255 54.7 251 82 238C109.3 225 136.7 203 163.8 204.5C191 206 218 231 245.2 233C272.3 235 299.7 214 327 204C354.3 194 381.7 195 409 197C436.3 199 463.7 202 491 208C518.3 214 545.7 223 573 222C600.3 221 627.7 210 654.8 211C682 212 709 225 736.2 223C763.3 221 790.7 204 818 203.5C845.3 203 872.7 219 886.3 227L900 235L900 182L886.3 173C872.7 164 845.3 146 818 142C790.7 138 763.3 148 736.2 147.5C709 147 682 136 654.8 143.5C627.7 151 600.3 177 573 178.5C545.7 180 518.3 157 491 143.5C463.7 130 436.3 126 409 130C381.7 134 354.3 146 327 161C299.7 176 272.3 194 245.2 188C218 182 191 152 163.8 147.5C136.7 143 109.3 164 82 173.5C54.7 183 27.3 181 13.7 180L0 179Z" fill="#d300b7"></path><path d="M0 301L13.7 301C27.3 301 54.7 301 82 301C109.3 301 136.7 301 163.8 301C191 301 218 301 245.2 301C272.3 301 299.7 301 327 301C354.3 301 381.7 301 409 301C436.3 301 463.7 301 491 301C518.3 301 545.7 301 573 301C600.3 301 627.7 301 654.8 301C682 301 709 301 736.2 301C763.3 301 790.7 301 818 301C845.3 301 872.7 301 886.3 301L900 301L900 233L886.3 225C872.7 217 845.3 201 818 201.5C790.7 202 763.3 219 736.2 221C709 223 682 210 654.8 209C627.7 208 600.3 219 573 220C545.7 221 518.3 212 491 206C463.7 200 436.3 197 409 195C381.7 193 354.3 192 327 202C299.7 212 272.3 233 245.2 231C218 229 191 204 163.8 202.5C136.7 201 109.3 223 82 236C54.7 249 27.3 253 13.7 255L0 257Z" fill="#0000ff"></path></svg>