<svg id="visual" viewBox="0 0 900 300" width="900" height="300" xmlns="http://www.w3.org/2000/svg" xmlns:xlink="http://www.w3.org/1999/xlink" version="1.1"><rect x="0" y="0" width="900" height="300" fill="#1a1a1a"></rect><path d="M0 204L21.5 211.7C43 219.3 86 234.7 128.8 243.3C171.7 252 214.3 254 257.2 249.3C300 244.7 343 233.3 385.8 229.5C428.7 225.7 471.3 229.3 514.2 231.8C557 234.3 600 235.7 642.8 232.2C685.7 228.7 728.3 220.3 771.2 214.2C814 208 857 204 878.5 202L900 200L900 301L878.5 301C857 301 814 301 771.2 301C728.3 301 685.7 301 642.8 301C600 301 557 301 514.2 301C471.3 301 428.7 301 385.8 301C343 301 300 301 257.2 301C214.3 301 171.7 301 128.8 301C86 301 43 301 21.5 301L0 301Z" fill="#c0f" stroke-linecap="round" stroke-linejoin="miter"></path></svg>